<svg id="Capa_1" enable-background="new 0 0 511.999 511.999" height="512" viewBox="0 0 511.999 511.999" width="512" xmlns="http://www.w3.org/2000/svg"><g><path d="m325.278 59.438-42.43 42.44c-3.903 3.903-3.903 10.238.001 14.142l42.43 42.42c3.905 3.904 10.236 3.904 14.142-.001l42.43-42.43c3.905-3.905 3.905-10.237 0-14.142l-42.43-42.43c-3.902-3.902-10.238-3.905-14.143.001zm35.36 49.501-28.289 28.289-28.287-28.281 28.289-28.295z"/><path d="m353.558 186.719 42.42 42.43c3.905 3.906 10.237 3.905 14.142.002l42.44-42.43c3.903-3.902 3.906-10.238 0-14.143l-42.43-42.43c-3.904-3.905-10.237-3.905-14.142 0l-42.43 42.43c-3.904 3.905-3.905 10.236 0 14.141zm49.502-35.358 28.287 28.287-28.295 28.289-28.281-28.287z"/><path d="m339.422 200.859c-3.903-3.904-10.239-3.906-14.144 0l-42.43 42.44c-3.905 3.905-3.904 10.236 0 14.142l42.42 42.42c3.905 3.905 10.237 3.905 14.142 0l42.43-42.43c3.905-3.905 3.905-10.236.001-14.142zm-7.082 77.788-28.279-28.279 28.289-28.295 28.279 28.285z"/><path d="m311.14 172.577-42.43-42.42c-3.905-3.904-10.236-3.904-14.142.001l-42.43 42.43c-3.905 3.905-3.905 10.237 0 14.143l42.42 42.42c3.905 3.904 10.235 3.906 14.142.001l42.44-42.43c3.904-3.904 3.906-10.24 0-14.145zm-49.509 35.361-28.279-28.279 28.289-28.289 28.285 28.279z"/><circle cx="95.001" cy="417" r="10"/><path d="m339.471 2.928c-3.904-3.903-10.238-3.904-14.143 0-17.277 17.277-305.96 305.96-322.4 322.4-3.905 3.905-3.905 10.237 0 14.142l52.997 52.997c3.906 3.906 10.237 3.906 14.143.001 3.905-3.905 3.905-10.237 0-14.143l-45.926-45.926 14.137-14.137 155.458 155.458-14.137 14.137-45.924-45.924c-3.905-3.905-10.237-3.905-14.142 0s-3.905 10.237 0 14.142l52.996 52.995c3.905 3.905 10.237 3.904 14.142 0 16.381-16.381 305.219-305.22 322.4-322.4 3.903-3.904 3.904-10.238 0-14.143zm-287.049 301.191 106.322-106.322 53.696 175.133c1.495 4.878 6.429 7.858 11.456 6.888l78.99-15.246-95.005 95.005zm132.346-89.67 127.87 127.871-83.712 16.158zm148.262 119.978-155.458-155.458 154.828-154.828 155.458 155.458z"/></g></svg>