<svg id="Capa_1" enable-background="new 0 0 512 512" height="512" viewBox="0 0 512 512" width="512" xmlns="http://www.w3.org/2000/svg"><g><path d="m110.307 421.37 300-90c7.134-2.139 11.616-9.185 10.532-16.553-1.084-7.353-7.398-12.817-14.839-12.817h-240c-41.353 0-75 33.647-75 75v30c0 4.746 2.241 9.199 6.05 12.041 3.937 2.924 8.906 3.644 13.257 2.329z"/><path d="m301 211h45v61h-45z"/><path d="m226 211h45v61h-45z"/><path d="m346 15c0-8.284-6.716-15-15-15h-15c-8.284 0-15 6.716-15 15v166h45z"/><path d="m421 15c0-8.284-6.716-15-15-15h-15c-8.284 0-15 6.716-15 15v166h45z"/><path d="m376 211h45v61h-45z"/><path d="m271 15c0 20.991-14.445 38.67-33.917 43.619-6.544 1.663-11.083 7.555-11.083 14.308v108.073h45z"/><path d="m151 211h45v61h-45z"/><path d="m196 108.296c-7.98 7.196-18.433 11.704-30 11.704-8.291 0-15 6.709-15 15v46h45z"/><path d="m406 512c8.291 0 15-6.709 15-15v-137.957c-.749.269-1.311.837-2.08 1.068l-267.92 80.375v56.514c0 8.291 6.709 15 15 15zm-180-60h120c8.291 0 15 6.709 15 15s-6.709 15-15 15h-120c-8.291 0-15-6.709-15-15s6.709-15 15-15z"/></g></svg>