<svg id="Capa_1" enable-background="new 0 0 512 512" height="512" viewBox="0 0 512 512" width="512" xmlns="http://www.w3.org/2000/svg"><g><path d="m111.527 120c-4.143 0-7.5 3.357-7.5 7.5s3.357 7.5 7.5 7.5h7.5c4.143 0 7.5-3.357 7.5-7.5s-3.357-7.5-7.5-7.5z"/><path d="m143.81 120c-4.143 0-7.5 3.357-7.5 7.5s3.357 7.5 7.5 7.5h14.869c4.143 0 7.5-3.357 7.5-7.5s-3.357-7.5-7.5-7.5z"/><path d="m262.766 120c-4.143 0-7.5 3.357-7.5 7.5s3.357 7.5 7.5 7.5h14.869c4.143 0 7.5-3.357 7.5-7.5s-3.357-7.5-7.5-7.5z"/><path d="m324.786 127.5c0-4.143-3.357-7.5-7.5-7.5h-14.869c-4.143 0-7.5 3.357-7.5 7.5s3.357 7.5 7.5 7.5h14.869c4.143 0 7.5-3.357 7.5-7.5z"/><path d="m237.982 120h-14.869c-4.143 0-7.5 3.357-7.5 7.5s3.357 7.5 7.5 7.5h14.869c4.143 0 7.5-3.357 7.5-7.5s-3.357-7.5-7.5-7.5z"/><path d="m198.331 120h-14.869c-4.143 0-7.5 3.357-7.5 7.5s3.357 7.5 7.5 7.5h14.869c4.143 0 7.5-3.357 7.5-7.5s-3.357-7.5-7.5-7.5z"/><path d="m349.568 135c4.143 0 7.5-3.357 7.5-7.5s-3.357-7.5-7.5-7.5h-7.5c-4.143 0-7.5 3.357-7.5 7.5s3.357 7.5 7.5 7.5z"/><path d="m354.069 487c4.663 0 8.457-3.794 8.457-8.457v-44.086c0-4.663-3.794-8.457-8.457-8.457h-23.198c-4.663 0-8.457 3.794-8.457 8.457v44.086c0 4.663 3.794 8.457 8.457 8.457zm-16.655-46h10.112v31h-10.112z"/><path d="m262.394 479.5v-46c0-4.143-3.357-7.5-7.5-7.5s-7.5 3.357-7.5 7.5v46c0 4.143 3.357 7.5 7.5 7.5s7.5-3.357 7.5-7.5z"/><path d="m287.496 479.5v-46c0-4.143-3.357-7.5-7.5-7.5s-7.5 3.357-7.5 7.5v46c0 4.143 3.357 7.5 7.5 7.5s7.5-3.357 7.5-7.5z"/><path d="m98.57 434.457v44.086c0 4.663 3.794 8.457 8.457 8.457h38.982c4.663 0 8.457-3.794 8.457-8.457v-44.086c0-4.663-3.794-8.457-8.457-8.457h-38.982c-4.663 0-8.457 3.794-8.457 8.457zm15 6.543h25.896v31h-25.896z"/><path d="m228.825 487c4.663 0 8.457-3.794 8.457-8.457v-44.086c0-4.663-3.794-8.457-8.457-8.457h-30.679c-4.663 0-8.457 3.794-8.457 8.457v44.086c0 4.663 3.794 8.457 8.457 8.457zm-24.136-46h17.593v31h-17.593z"/><path d="m312.303 479.5v-46c0-4.143-3.357-7.5-7.5-7.5s-7.5 3.357-7.5 7.5v46c0 4.143 3.357 7.5 7.5 7.5s7.5-3.357 7.5-7.5z"/><path d="m179.578 479.5v-46c0-4.143-3.357-7.5-7.5-7.5s-7.5 3.357-7.5 7.5v46c0 4.143 3.357 7.5 7.5 7.5s7.5-3.357 7.5-7.5z"/><path d="m439.886 37.365c0-20.603-16.762-37.365-37.365-37.365h-171.973c-16.272 0-30.147 10.455-35.262 25h-44.145c-4.737 0-9.21 2.302-11.964 6.158l-64.325 90.105c-1.791 2.506-2.737 5.46-2.737 8.543v202.207c0 3.487 1.876 6.736 4.896 8.479 3.017 1.743 6.771 1.744 9.791 0 83.586-48.259 143.121-82.632 216.426-124.954 3.587-2.071 4.816-6.658 2.745-10.245-2.07-3.588-6.659-4.814-10.245-2.745l-9.544 5.51c-.248-.477-.512-.946-.793-1.408-7.109-11.68-18.204-20.322-31.033-24.358v-1.963c0-13.128-10.68-23.809-23.808-23.809s-23.809 10.681-23.809 23.809v1.993c-23.038 7.265-39.185 28.828-39.185 53.444 0 12.377 4.143 24.368 11.593 34.088l-92.034 53.136v-193.09l64.18-89.9h41.98c.915 13.066 8.576 24.301 19.515 30.235-1.6 2.898-2.512 6.227-2.512 9.765 0 11.177 9.093 20.27 20.27 20.27s20.27-9.093 20.27-20.27-9.093-20.27-20.27-20.27c-11.441 0-20.903-8.635-22.211-19.73h101.464c98.67 138.211-34.678-48.575 64.182 89.902v27.466l-47.818 27.607c-3.587 2.071-4.816 6.658-2.745 10.245 2.07 3.587 6.659 4.815 10.245 2.745l50.426-29.113c3.018-1.744 4.893-4.992 4.893-8.478v-30.569c0-3.079-.945-6.032-2.735-8.54l-33.224-46.535h49.495c20.604 0 37.366-16.761 37.366-37.365zm-224.714 198.403c0-4.646 3.779-8.425 8.425-8.425h13.904c2.968 0 5.665 1.52 7.216 4.07.088.145.178.288.27.431l-21.387 12.347c-4.652 0-8.428-3.781-8.428-8.423zm-32.616 0c0-19.568 13.933-36.503 33.128-40.268 3.519-.689 6.057-3.773 6.057-7.359v-7.811c0-4.857 3.951-8.809 8.809-8.809 4.856 0 8.808 3.951 8.808 8.809v7.789c0 3.594 2.549 6.683 6.078 7.364 11.397 2.201 21.037 8.937 27.143 18.968.222.364.416.741.581 1.128l-15.147 8.745c-.172-.228-.333-.466-.482-.711-4.292-7.058-11.779-11.271-20.028-11.271h-13.904c-12.916 0-23.425 10.509-23.425 23.425 0 6.921 3.018 13.151 7.807 17.443l-15.688 9.057c-6.24-7.373-9.737-16.775-9.737-26.499zm47.992-150.498c-2.905 0-5.27-2.364-5.27-5.27s2.364-5.27 5.27-5.27 5.27 2.364 5.27 5.27-2.365 5.27-5.27 5.27zm91.37-54.113c-2.753-3.855-7.225-6.157-11.962-6.157h-98.036c4.011-6.023 10.864-10 18.627-10h171.973c12.332 0 22.365 10.033 22.365 22.365s-10.032 22.365-22.364 22.365h-60.204z"/><path d="m381.482 308.481c4.143 0 7.5-3.357 7.5-7.5v-95.315c0-3.487-1.876-6.736-4.896-8.479-3.021-1.745-6.773-1.744-9.791 0-42.2 24.364-258.482 149.235-297.285 171.638-3.021 1.743-4.896 4.993-4.896 8.48v119.997c0 8.104 6.594 14.698 14.698 14.698h287.471c8.105 0 14.699-6.594 14.699-14.698v-161.32c0-4.143-3.357-7.5-7.5-7.5s-7.5 3.357-7.5 7.5v65.018h-233.479c-4.143 0-7.5 3.357-7.5 7.5s3.357 7.5 7.5 7.5h233.479v81h-286.868v-81h18.389c4.143 0 7.5-3.357 7.5-7.5s-3.357-7.5-7.5-7.5h-18.389v-20.688l88.51-51.101c.028.046.055.093.083.139 7.11 11.679 18.206 20.321 31.033 24.357v1.963c0 13.128 10.681 23.809 23.809 23.809s23.808-10.681 23.808-23.809v-1.993c23.038-7.265 39.185-28.828 39.185-53.444 0-12.017-3.747-23.418-10.697-32.926l91.139-52.619v86.294c-.002 4.142 3.356 7.499 7.498 7.499zm-135.558-8.249c0 4.646-3.778 8.425-8.423 8.425h-13.904c-2.651 0-5.086-1.213-6.681-3.287l22.923-13.234c3.529 1.014 6.085 4.269 6.085 8.096zm32.617 0c0 19.568-13.933 36.503-33.128 40.268-3.519.689-6.057 3.773-6.057 7.359v7.811c0 4.857-3.951 8.809-8.808 8.809s-8.809-3.951-8.809-8.809v-7.789c0-3.594-2.549-6.683-6.078-7.364-11.337-2.189-20.934-8.866-27.044-18.808l15.266-8.814c4.341 6.751 11.665 10.763 19.713 10.763h13.904c12.915 0 23.423-10.509 23.423-23.425 0-6.369-2.547-12.168-6.698-16.403l15.521-8.961c5.705 7.205 8.795 16.032 8.795 25.363z"/></g></svg>